<?xml version="1.0" encoding="utf-8"?>
<!-- Generator: Adobe Illustrator 12.0.0, SVG Export Plug-In . SVG Version: 6.00 Build 51448)  -->
<!DOCTYPE svg PUBLIC "-//W3C//DTD SVG 1.1 Basic//EN" "http://www.w3.org/Graphics/SVG/1.1/DTD/svg11-basic.dtd" [
	<!ENTITY ns_svg "http://www.w3.org/2000/svg">
	<!ENTITY ns_xlink "http://www.w3.org/1999/xlink">
]>
<svg  version="1.1" baseProfile="basic" id="Layer_1" xmlns="&ns_svg;" xmlns:xlink="&ns_xlink;" width="26.448" height="19.795"
	 viewBox="0 0 26.448 19.795" overflow="visible" enable-background="new 0 0 26.448 19.795" xml:space="preserve">
<g>
	<path fill="none" stroke="#000000" stroke-width="0.8695" stroke-linejoin="round" d="M3.659,1.535c0,0,1.973-1.387,5.507-1.046
		c3.55,0.343,4.057,2.451,4.057,2.451v13.32c0,0-1.31-2.184-4.076-2.299c-2.317-0.096-5.488,0.627-5.488,0.627V1.535z"/>
	<polygon fill="none" stroke="#000000" stroke-width="0.8695" stroke-linejoin="round" points="1.883,17.476 3.659,14.588 
		3.659,1.535 1.883,3.31 	"/>
	<path fill="none" stroke="#000000" stroke-width="0.8695" stroke-linecap="round" stroke-linejoin="round" d="M13.223,17.476
		c-1.217,0-1.63-0.688-2.825-0.688c-1.196,0-8.515,0.688-8.515,0.688"/>
	<path fill="none" stroke="#000000" stroke-width="1.1593" stroke-linecap="round" stroke-linejoin="round" d="M13.223,19.07
		c-1.014,0-0.761-0.761-2.282-0.761c-1.521,0-10.361,0.905-10.361,0.905V3.347L1.883,3.31"/>
	<path fill="none" stroke="#000000" stroke-width="0.8695" stroke-linejoin="round" d="M22.788,1.535c0,0-1.973-1.387-5.507-1.046
		c-3.55,0.343-4.058,2.451-4.058,2.451v13.32c0,0,1.311-2.184,4.076-2.299c2.316-0.096,5.488,0.627,5.488,0.627V1.535z"/>
	<polygon fill="none" stroke="#000000" stroke-width="0.8695" stroke-linejoin="round" points="24.563,17.476 22.788,14.588 
		22.788,1.535 24.563,3.31 	"/>
	<path fill="none" stroke="#000000" stroke-width="0.8695" stroke-linecap="round" stroke-linejoin="round" d="M13.223,17.476
		c1.217,0,1.631-0.688,2.826-0.688s8.514,0.688,8.514,0.688"/>
	<path fill="none" stroke="#000000" stroke-width="1.1593" stroke-linecap="round" stroke-linejoin="round" d="M13.223,19.07
		c1.015,0,0.762-0.761,2.283-0.761c1.521,0,10.361,0.905,10.361,0.905V3.347L24.563,3.31"/>
</g>
</svg>
