<?xml version="1.0" encoding="utf-8"?>
<!-- Generator: Adobe Illustrator 12.0.0, SVG Export Plug-In . SVG Version: 6.00 Build 51448)  -->
<!DOCTYPE svg PUBLIC "-//W3C//DTD SVG 1.1 Basic//EN" "http://www.w3.org/Graphics/SVG/1.1/DTD/svg11-basic.dtd" [
	<!ENTITY ns_svg "http://www.w3.org/2000/svg">
	<!ENTITY ns_xlink "http://www.w3.org/1999/xlink">
]>
<svg  version="1.1" baseProfile="basic" id="Layer_1" xmlns="&ns_svg;" xmlns:xlink="&ns_xlink;" width="22.17" height="22.17"
	 viewBox="0 0 22.17 22.17" overflow="visible" enable-background="new 0 0 22.17 22.17" xml:space="preserve">
<polygon points="22.17,18.317 18.317,22.17 0,22.17 0,3.853 3.853,0 22.17,0 "/>
<g>
	<rect x="1.392" y="4.642" fill="#FFFFFF" width="16.136" height="16.136"/>
</g>
<g>
	<path d="M10.711,15.078H7.654v-0.306c0-0.52,0.059-0.942,0.177-1.266c0.118-0.324,0.293-0.62,0.526-0.889
		c0.233-0.268,0.757-0.74,1.572-1.415c0.434-0.354,0.651-0.678,0.651-0.973c0-0.294-0.087-0.524-0.262-0.688
		C10.145,9.379,9.88,9.297,9.525,9.297c-0.381,0-0.697,0.126-0.947,0.379C8.329,9.929,8.169,10.37,8.1,10.998l-3.121-0.387
		C5.086,9.464,5.503,8.54,6.229,7.84s1.841-1.05,3.343-1.05c1.169,0,2.113,0.244,2.832,0.731c0.976,0.659,1.464,1.538,1.464,2.637
		c0,0.456-0.126,0.895-0.377,1.318c-0.252,0.424-0.766,0.941-1.542,1.552c-0.541,0.429-0.882,0.773-1.024,1.033
		C10.782,14.321,10.711,14.66,10.711,15.078z M7.55,15.897h3.274v2.891H7.55V15.897z"/>
</g>
</svg>
